<svg xmlns="http://www.w3.org/2000/svg" viewBox="0 0 576 452"><defs><linearGradient x1="11.5%" y1="11.5%" x2="93.719%" y2="93.719%" id="a"><stop stop-color="#0BDA4F" offset="0%"/><stop stop-color="#15DC50" offset="1.85%"/><stop stop-color="#48E455" offset="12.04%"/><stop stop-color="#74EB5A" offset="22.71%"/><stop stop-color="#9AF15E" offset="33.68%"/><stop stop-color="#B9F661" offset="45.01%"/><stop stop-color="#D1FA64" offset="56.83%"/><stop stop-color="#E2FD66" offset="69.33%"/><stop stop-color="#ECFE67" offset="82.99%"/><stop stop-color="#EFFF67" offset="100%"/></linearGradient><linearGradient x1="0%" y1="50%" x2="100%" y2="50%" id="b"><stop stop-color="#EDEDED" offset="0%"/><stop stop-color="#DDD" offset="100%"/></linearGradient><linearGradient x1="50%" y1="-8.153%" x2="50%" y2="79.767%" id="c"><stop stop-color="#00BB4D" offset="0%"/><stop stop-color="#00AA21" offset="100%"/></linearGradient><linearGradient x1="70.351%" y1="-2.337%" x2="31.107%" y2="93.052%" id="d"><stop stop-color="#302926" stop-opacity="0" offset="0%"/><stop stop-color="#27211F" stop-opacity=".043" offset="29%"/><stop stop-color="#0F0D0C" stop-opacity=".114" offset="76.16%"/><stop stop-opacity=".15" offset="100%"/></linearGradient><linearGradient x1="50%" y1="8.12%" x2="50%" y2="74.59%" id="e"><stop stop-color="#00E35E" offset="0%"/><stop stop-color="#00B248" offset="100%"/></linearGradient><linearGradient x1="0%" y1="50%" x2="100%" y2="50%" id="f"><stop stop-color="#777284" offset="0%"/><stop stop-color="#342D47" offset="100%"/></linearGradient><linearGradient x1="0%" y1="50%" x2="100%" y2="50%" id="g"><stop stop-color="#676370" offset="0%"/><stop stop-color="#3F3454" offset="100%"/></linearGradient><linearGradient x1="50%" y1="-5.556%" x2="50%" y2="101.47%" id="h"><stop stop-color="#B6DD54" offset="0%"/><stop stop-color="#B2DC54" offset="14.33%"/><stop stop-color="#A5D753" offset="29.18%"/><stop stop-color="#91D051" offset="44.28%"/><stop stop-color="#74C64F" offset="59.54%"/><stop stop-color="#4EB94D" offset="74.94%"/><stop stop-color="#21A949" offset="90.24%"/><stop stop-color="#009E47" offset="100%"/></linearGradient><linearGradient x1="50%" y1="-4.167%" x2="50%" y2="109.277%" id="i"><stop stop-color="#B6DD54" offset="0%"/><stop stop-color="#B2DC54" offset="14.33%"/><stop stop-color="#A5D753" offset="29.18%"/><stop stop-color="#91D051" offset="44.28%"/><stop stop-color="#74C64F" offset="59.54%"/><stop stop-color="#4EB94D" offset="74.94%"/><stop stop-color="#21A949" offset="90.24%"/><stop stop-color="#009E47" offset="100%"/></linearGradient><linearGradient x1="50%" y1="-5.903%" x2="50%" y2="95.839%" id="j"><stop stop-color="#B6DD54" offset="0%"/><stop stop-color="#B2DC54" offset="14.33%"/><stop stop-color="#A5D753" offset="29.18%"/><stop stop-color="#91D051" offset="44.28%"/><stop stop-color="#74C64F" offset="59.54%"/><stop stop-color="#4EB94D" offset="74.94%"/><stop stop-color="#21A949" offset="90.24%"/><stop stop-color="#009E47" offset="100%"/></linearGradient><linearGradient x1="50%" y1="-.823%" x2="50%" y2="100.207%" id="k"><stop stop-color="#FFE552" offset="0%"/><stop stop-color="#FF5E19" offset="100%"/></linearGradient><linearGradient x1="0%" y1="50%" x2="100%" y2="50%" id="l"><stop stop-color="#C8C8C8" offset="0%"/><stop stop-color="#C3C3C3" offset="5.52%"/><stop stop-color="#B5B5B5" offset="27.81%"/><stop stop-color="#ADADAD" offset="54.91%"/><stop stop-color="#AAA" offset="100%"/></linearGradient><linearGradient x1="100.943%" y1="50%" x2="-.319%" y2="50%" id="m"><stop stop-color="#DEDEDE" offset="0%"/><stop stop-color="#DCDCDC" offset="2.28%"/><stop stop-color="#CECECE" offset="25.34%"/><stop stop-color="#C6C6C6" offset="53.36%"/><stop stop-color="#C3C3C3" offset="100%"/></linearGradient><linearGradient x1="50%" y1="-14.583%" x2="50%" y2="102.251%" id="n"><stop stop-color="#F0F0F0" offset="0%"/><stop stop-color="#D3D3D3" offset="100%"/></linearGradient><linearGradient x1="50%" y1="-4.688%" x2="50%" y2="103.306%" id="o"><stop stop-color="#F0F0F0" offset="0%"/><stop stop-color="#ECECEC" offset="31.24%"/><stop stop-color="#DFDFDF" offset="63.59%"/><stop stop-color="#CBCBCB" offset="96.36%"/><stop stop-color="#C8C8C8" offset="100%"/></linearGradient><linearGradient x1="102.586%" y1="50%" x2="-.882%" y2="50%" id="p"><stop stop-color="#EDEDED" offset="0%"/><stop stop-color="#E4E4E4" offset="35.14%"/><stop stop-color="#CCC" offset="92.27%"/><stop stop-color="#C8C8C8" offset="100%"/></linearGradient><linearGradient x1="17.901%" y1="17.901%" x2="86.697%" y2="86.697%" id="q"><stop stop-color="#F5F5F5" offset="0%"/><stop stop-color="#ECECEC" offset="30.42%"/><stop stop-color="#D4D4D4" offset="79.87%"/><stop stop-color="#C8C8C8" offset="100%"/></linearGradient><linearGradient x1="50%" y1="-.877%" x2="50%" y2="100.021%" id="r"><stop stop-color="#FFF" offset="0%"/><stop stop-color="#FBFEFF" offset="36.22%"/><stop stop-color="#EEFBFF" offset="73.67%"/><stop stop-color="#E1F8FF" offset="100%"/></linearGradient><linearGradient x1="50%" y1="-1.351%" x2="50%" y2="100.594%" id="s"><stop stop-color="#FFE552" offset="0%"/><stop stop-color="#FFAE39" offset="100%"/></linearGradient><linearGradient x1="-.294%" y1="50%" x2="93.511%" y2="50%" id="t"><stop stop-color="#919191" offset="0%"/><stop stop-color="#8D8D8D" offset="25.14%"/><stop stop-color="gray" offset="51.18%"/><stop stop-color="#6C6C6C" offset="77.55%"/><stop stop-color="#545454" offset="100%"/></linearGradient><linearGradient x1="50.001%" y1="-3.75%" x2="50.001%" y2="100.481%" id="u"><stop stop-color="#C8C8C8" offset="0%"/><stop stop-color="#BFBFBF" offset="41%"/><stop stop-color="#AAA" offset="100%"/></linearGradient><linearGradient x1="0%" y1="50%" x2="100%" y2="50%" id="v"><stop stop-color="#EBEBEB" offset="0%"/><stop stop-color="#DCDCDC" offset="100%"/></linearGradient><linearGradient x1="35.039%" y1="35.037%" x2="64.195%" y2="64.194%" id="w"><stop stop-color="#C8C8C8" offset="0%"/><stop stop-color="#C8C8C8" offset=".32%"/><stop stop-color="#D0D0D0" offset="37.73%"/><stop stop-color="#D3D3D3" offset="100%"/></linearGradient><linearGradient x1="83.762%" y1="57.791%" x2="42.946%" y2="48.372%" id="x"><stop stop-opacity=".15" offset="0%"/><stop stop-color="#6086C4" stop-opacity="0" offset="100%"/></linearGradient><linearGradient x1="32.234%" y1="32.064%" x2="67.098%" y2="67.019%" id="y"><stop stop-color="#2B2929" stop-opacity=".3" offset="0%"/><stop stop-color="#302926" stop-opacity="0" offset="100%"/></linearGradient><linearGradient x1="56.566%" y1="-.879%" x2="46.855%" y2="98.689%" id="z"><stop stop-color="#2B2929" stop-opacity=".2" offset="0%"/><stop stop-color="#2C2928" stop-opacity=".171" offset="14.47%"/><stop stop-color="#302926" stop-opacity="0" offset="100%"/></linearGradient><linearGradient x1="100.294%" y1="50%" x2="6.489%" y2="50%" id="A"><stop stop-color="#939393" offset="0%"/><stop stop-color="#8F8F8F" offset="32.51%"/><stop stop-color="#828282" offset="66.2%"/><stop stop-color="#6E6E6E" offset="100%"/></linearGradient><linearGradient x1="50.002%" y1="-3.75%" x2="50.002%" y2="100.481%" id="B"><stop stop-color="#C8C8C8" offset="0%"/><stop stop-color="#BFBFBF" offset="41%"/><stop stop-color="#AAA" offset="100%"/></linearGradient><linearGradient x1="100.001%" y1="50%" x2="0%" y2="50%" id="C"><stop stop-color="#EBEBEB" offset="0%"/><stop stop-color="#DCDCDC" offset="100%"/></linearGradient><linearGradient x1="64.964%" y1="35.037%" x2="35.808%" y2="64.194%" id="D"><stop stop-color="#C8C8C8" offset="0%"/><stop stop-color="#C8C8C8" offset=".32%"/><stop stop-color="#D0D0D0" offset="37.73%"/><stop stop-color="#D3D3D3" offset="100%"/></linearGradient><linearGradient x1="16.241%" y1="57.791%" x2="57.057%" y2="48.372%" id="E"><stop stop-opacity=".15" offset="0%"/><stop stop-color="#6086C4" stop-opacity="0" offset="100%"/></linearGradient><linearGradient x1="67.763%" y1="32.064%" x2="32.9%" y2="67.019%" id="F"><stop stop-color="#2B2929" stop-opacity=".3" offset="0%"/><stop stop-color="#302926" stop-opacity="0" offset="100%"/></linearGradient><linearGradient x1="43.211%" y1="-.933%" x2="53.161%" y2="98.836%" id="G"><stop stop-color="#2B2929" stop-opacity=".2" offset="0%"/><stop stop-color="#2C2928" stop-opacity=".171" offset="14.47%"/><stop stop-color="#302926" stop-opacity="0" offset="100%"/></linearGradient><linearGradient x1="50%" y1="98.438%" x2="50%" y2="-1.758%" id="H"><stop stop-color="#F0F0F0" offset="0%"/><stop stop-color="#FFF" offset="100%"/></linearGradient><linearGradient x1="101.411%" y1="50%" x2=".411%" y2="50%" id="I"><stop stop-color="#EDEDED" offset="0%"/><stop stop-color="#D2D2D2" offset="100%"/></linearGradient><linearGradient x1="0%" y1="50%" x2="100%" y2="50%" id="J"><stop stop-color="#FF7955" offset="0%"/><stop stop-color="#FF705E" offset="45.56%"/><stop stop-color="#FF5F6F" offset="100%"/></linearGradient><linearGradient x1="50%" y1="-1.042%" x2="50%" y2="99.187%" id="K"><stop stop-color="#AB2926" stop-opacity="0" offset="0%"/><stop stop-color="#B1211F" stop-opacity=".029" offset="14.46%"/><stop stop-color="#C50908" stop-opacity=".135" offset="67.43%"/><stop stop-color="#C00" stop-opacity=".2" offset="100%"/></linearGradient><linearGradient x1="50%" y1="-1.351%" x2="50%" y2="100.594%" id="L"><stop stop-color="#FFE552" offset="0%"/><stop stop-color="#FFAE39" offset="100%"/></linearGradient><linearGradient x1="50%" y1="0%" x2="50%" y2="100.907%" id="M"><stop stop-color="#FFE552" offset="0%"/><stop stop-color="#FF9617" offset="100%"/></linearGradient><linearGradient x1="50%" y1=".225%" x2="50%" y2="100.701%" id="N"><stop stop-color="#FFE552" offset="0%"/><stop stop-color="#FF821A" offset="100%"/></linearGradient><linearGradient x1="50%" y1="1.351%" x2="50%" y2="100.788%" id="O"><stop stop-color="#FFE552" offset="0%"/><stop stop-color="#FF7024" offset="100%"/></linearGradient><linearGradient x1="15.088%" y1="50%" x2="85.107%" y2="50%" id="P"><stop stop-color="#FFEFAB" offset="0%"/><stop stop-color="#FFEBA2" offset="14.07%"/><stop stop-color="#FFE18A" offset="37.01%"/><stop stop-color="#FFD062" offset="65.81%"/><stop stop-color="#FFCD5C" offset="70%"/><stop stop-color="#FECB58" offset="79.89%"/><stop stop-color="#FCC44B" offset="90.12%"/><stop stop-color="#F9B938" offset="100%"/></linearGradient><linearGradient x1="50%" y1="-4.911%" x2="50%" y2="103.258%" id="Q"><stop stop-color="#B6DD54" offset="0%"/><stop stop-color="#B2DC54" offset="14.33%"/><stop stop-color="#A5D753" offset="29.18%"/><stop stop-color="#91D051" offset="44.28%"/><stop stop-color="#74C64F" offset="59.54%"/><stop stop-color="#4EB94D" offset="74.94%"/><stop stop-color="#21A949" offset="90.24%"/><stop stop-color="#009E47" offset="100%"/></linearGradient><linearGradient x1="50%" y1="-50%" x2="50%" y2="183.387%" id="R"><stop stop-opacity=".4" offset="0%"/><stop stop-color="#302926" stop-opacity="0" offset="60%"/></linearGradient><linearGradient x1="50%" y1="100.735%" x2="50%" y2="1.901%" id="S"><stop stop-opacity=".3" offset="0%"/><stop stop-color="#120F0E" stop-opacity=".247" offset="17.7%"/><stop stop-color="#231E1C" stop-opacity=".176" offset="41.47%"/><stop stop-color="#2D2623" stop-opacity=".097" offset="67.54%"/><stop stop-color="#302926" stop-opacity="0" offset="100%"/></linearGradient><linearGradient x1="50.001%" y1="0%" x2="50.001%" y2="100%" id="T"><stop stop-color="#35302D" offset="0%"/><stop stop-color="#2D2420" offset="100%"/></linearGradient><linearGradient x1="0%" y1="50%" x2="100%" y2="50%" id="U"><stop stop-color="#302926" stop-opacity="0" offset="0%"/><stop stop-color="#302926" stop-opacity=".1" offset="100%"/></linearGradient></defs><g fill="none" fill-rule="evenodd"><circle fill="url(#a)" fill-rule="nonzero" cx="122" cy="122" r="122"/><path fill="url(#b)" fill-rule="nonzero" d="M20 408h524v8H20z"/><path d="M573.76 227.18c-30.1 42.56-69.66 68.7-118.7 78.4-10.02 2-20.42 3.3-31.24 3.92-3.2.18-5.26-3.36-3.5-6.04 23.04-35.16 52.06-59.98 87.04-74.48 1.06-.44 2.12-.86 3.18-1.26 3.04-1.22 6.14-2.34 9.28-3.36 14.62-4.88 30.2-8.08 46.76-9.6 6.68-.6 11.04 6.96 7.18 12.42Z" fill="url(#c)" fill-rule="nonzero"/><path stroke="#176D3A" stroke-width="2" stroke-linecap="round" stroke-linejoin="round" d="m484.021 256.929-4.759 17.758 17.759 4.758z"/><path d="M561.403 227.188a.995.995 0 0 0-1.365-.365l-28.93 16.703 4.11-15.336a1.003 1.003 0 0 0-.707-1.227 1.015 1.015 0 0 0-1.227.707l-4.627 17.271-14.87 8.585 4.659-17.389a1.001 1.001 0 0 0-.709-1.225 1.02 1.02 0 0 0-1.225.709l-5.176 19.319-16.603 9.586 6.489-24.217a1.002 1.002 0 0 0-.709-1.227c-.521-.127-1.08.174-1.225.709l-7.006 26.149-19.389 11.194a.996.996 0 0 0-.365 1.365.998.998 0 0 0 1.365.365l19.274-11.128 26.327 7.054a1.005 1.005 0 0 0 1.227-.707 1.003 1.003 0 0 0-.707-1.227l-24.396-6.535 16.602-9.585 19.498 5.224a1.005 1.005 0 0 0 1.227-.707 1.003 1.003 0 0 0-.707-1.227l-17.566-4.705 14.87-8.585 17.449 4.675a1.005 1.005 0 0 0 1.227-.707 1.003 1.003 0 0 0-.707-1.227l-15.518-4.156 29.045-16.769a.997.997 0 0 0 .365-1.364Z" fill="#1B8C44" fill-rule="nonzero"/><path d="M519.82 224.36 492 278l-10.02-2.86L478 274l29.36-45.02.64-.98 2.84-.94-.3.66c3.04-1.22 6.14-2.34 9.28-3.36Z" fill="url(#d)" fill-rule="nonzero"/><path d="M535.58 131.66c-3.2 34.72-11.44 66.52-24.74 95.4l-.3.66c-7.82 16.8-17.32 32.6-28.56 47.42-8.08 10.66-17.06 20.8-26.92 30.44-14.26 13.92-30.34 26.76-48.3 38.54-3.9 2.56-9.06-.44-8.78-5.08 5.26-92.56 45.12-165.16 119.56-217.78 7.94-5.6 18.92.74 18.04 10.4Z" fill="url(#e)" fill-rule="nonzero"/><path d="M523.823 133.044a1.003 1.003 0 0 0-1.365.366l-24.807 42.968-6.251-23.331a1 1 0 0 0-1.934.518l6.77 25.264-13.11 22.708-7.049-26.309a1 1 0 1 0-1.934.518l7.568 28.242-14.562 25.222-9.707-36.228a1 1 0 1 0-1.934.518l10.226 38.161-10.205 17.675-6.252-23.333a1.011 1.011 0 0 0-1.227-.707c-.533.145-.85.691-.707 1.227l6.77 25.264-14.979 25.945a.998.998 0 0 0 .865 1.5c.344 0 .682-.18.865-.5l14.884-25.781 25.526-6.841c.533-.145.85-.691.707-1.227a1.012 1.012 0 0 0-1.227-.707l-23.591 6.323 10.205-17.677 38.421-10.295a1 1 0 1 0-.52-1.932l-36.487 9.776 14.562-25.222 28.501-7.637a1 1 0 1 0-.52-1.932l-26.567 7.119 13.11-22.707 25.526-6.84a1 1 0 1 0-.52-1.932l-23.592 6.322 24.903-43.133a.995.995 0 0 0-.362-1.365Z" fill="#1B8C44" fill-rule="nonzero"/><path d="M456 408h-26V302h86v46c0 33.137-26.863 60-60 60Z" fill="url(#f)" fill-rule="nonzero"/><path d="M524 306h-78v-16h78a4 4 0 0 1 4 4v8a4 4 0 0 1-4 4Z" fill="url(#g)" fill-rule="nonzero"/><path d="M510 278a6 6 0 0 1 6 6v6h-12v-6a6 6 0 0 1 6-6Z" fill="url(#h)" fill-rule="nonzero"/><path d="M497 270a7 7 0 0 1 7 7v13h-14v-13a7 7 0 0 1 7-7Z" fill="url(#i)" fill-rule="nonzero"/><path d="M468 254a8 8 0 0 1 8 8v28h-16v-28a8 8 0 0 1 8-8Z" fill="url(#j)" fill-rule="nonzero"/><path d="M460 400a8 8 0 0 1-8 8H224a8 8 0 0 1-8-8V92a8 8 0 0 1 8-8h228a8 8 0 0 1 8 8v308Z" fill="url(#k)" fill-rule="nonzero"/><path d="M440 392H236a4 4 0 0 1-4-4v-12h212v12a4 4 0 0 1-4 4Z" fill="url(#l)" fill-rule="nonzero"/><path d="M444 368a4 4 0 0 1-4 4H236a4 4 0 0 1-4-4V104a4 4 0 0 1 4-4h204a4 4 0 0 1 4 4v264Z" fill="#FFF" fill-rule="nonzero"/><path d="M412 332c-6.627 0-12 5.373-12 12v28H232v8a4 4 0 0 0 4 4h204a4 4 0 0 0 4-4v-48h-32Z" fill="url(#m)" fill-rule="nonzero"/><path d="M406 76H270c-2.2 0-4 1.8-4 4v28a4 4 0 0 0 4 4h136a4 4 0 0 0 4-4V80c0-2.2-1.8-4-4-4ZM304 98c-3.32 0-6-2.68-6-6s2.68-6 6-6 6 2.68 6 6-2.68 6-6 6Zm68 0c-3.32 0-6-2.68-6-6s2.68-6 6-6 6 2.68 6 6-2.68 6-6 6Z" fill="url(#n)" fill-rule="nonzero"/><path d="M376 76h-8v-8h-60v8h-8v-8c0-4.411 3.588-8 8-8h60c4.412 0 8 3.589 8 8v8Z" fill="url(#o)" fill-rule="nonzero"/><path d="M268 172a2 2 0 0 1-2 2H154a2 2 0 1 1 0-4h112a2 2 0 0 1 2 2Z" fill="url(#p)" fill-rule="nonzero"/><path d="M434 328h-30a4 4 0 0 0-4 4v30c0 5.52-4.48 10-10 10h10c24.301 0 44-19.699 44-44v-10c0 5.52-4.48 10-10 10Z" fill="url(#q)" fill-rule="nonzero"/><path d="M196 404a4 4 0 0 1-4 4H68a4 4 0 0 1-4-4V184a4 4 0 0 1 4-4h124a4 4 0 0 1 4 4v220Z" fill="url(#r)" fill-rule="nonzero"/><path fill="url(#s)" fill-rule="nonzero" d="M152 194h116v148H152z"/><path fill="#CCCECE" fill-rule="nonzero" d="M180 398H74V190h66v-2H74v-12h-2v12H60v2h12v208H60v2h12v4h2v-4h106z"/><path d="M121.858 304.199a10.042 10.042 0 0 1-7.07-2.926l-38.03-38.031 8.486-8.484 36.538 36.539 33.77-37.322 8.898 8.051-35.181 38.883a10.038 10.038 0 0 1-7.162 3.287l-.249.003Z" fill="url(#t)" fill-rule="nonzero"/><circle fill="url(#u)" fill-rule="nonzero" cx="122" cy="298" r="10"/><path d="m78.244 247.76-16.007-16.006a5.998 5.998 0 0 0-8.485 0 5.998 5.998 0 0 0 .001 8.484L61.515 248H20a4 4 0 0 0-4 4 8 8 0 0 0 8 8h48l1.998-2h.004a5.997 5.997 0 0 0 4.242-10.24Z" fill="url(#v)" fill-rule="nonzero"/><path d="m71.414 267.414-2.828-2.828a2 2 0 0 1 0-2.828l15.172-15.172a2 2 0 0 1 2.828 0l2.828 2.828a2 2 0 0 1 0 2.828l-15.172 15.172a2 2 0 0 1-2.828 0Z" fill="url(#w)" fill-rule="nonzero"/><path fill="url(#x)" fill-rule="nonzero" d="M61.515 248 68 254l-26-6z"/><path fill="url(#y)" fill-rule="nonzero" d="m86.071 255.585-8.485 8.486 3.781 3.781 8.454-8.516z"/><path fill="url(#z)" fill-rule="nonzero" d="M152 258v17.719l-9.938 11.05L146 264.565z"/><path d="M298.592 304.199c2.638 0 5.202-1.059 7.07-2.926l38.03-38.031-8.486-8.484-36.538 36.539-33.77-37.322-8.898 8.051 35.181 38.883a10.038 10.038 0 0 0 7.162 3.287l.249.003Z" fill="url(#A)" fill-rule="nonzero"/><circle fill="url(#B)" fill-rule="nonzero" cx="298.449" cy="298" r="10"/><path d="m342.205 247.76 16.007-16.006a5.998 5.998 0 0 1 8.485 0 5.998 5.998 0 0 1-.001 8.484L358.934 248h41.515a4 4 0 0 1 4 4 8 8 0 0 1-8 8h-48l-1.998-2h-.004a5.998 5.998 0 0 1-4.242-10.24Z" fill="url(#C)" fill-rule="nonzero"/><path d="m349.035 267.414 2.828-2.828a2 2 0 0 0 0-2.828l-15.172-15.172a2 2 0 0 0-2.828 0l-2.828 2.828a2 2 0 0 0 0 2.828l15.172 15.172a2 2 0 0 0 2.828 0Z" fill="url(#D)" fill-rule="nonzero"/><path fill="url(#E)" fill-rule="nonzero" d="m358.934 248-6.485 6 26-6z"/><path fill="url(#F)" fill-rule="nonzero" d="m334.379 255.585 8.485 8.486-3.781 3.781-8.454-8.516z"/><path fill="url(#G)" fill-rule="nonzero" d="M268 258v17.719l10.163 11.05-4.051-22.204z"/><path fill="url(#H)" fill-rule="nonzero" d="M152 180h116v16H152z"/><path d="M272 168a4 4 0 0 0-4-4H152a4 4 0 0 0-4 4v8a4 4 0 0 0 4 4h116a4 4 0 0 0 4-4v-8Z" fill="url(#I)" fill-rule="nonzero"/><path d="M252 116h-84c-8.837 0-16 7.163-16 16v32h116v-32c0-8.837-7.163-16-16-16Z" fill="url(#J)" fill-rule="nonzero"/><path d="M268 132v32h-8v-32c0-8.84-7.16-16-16-16h8c8.84 0 16 7.16 16 16Z" fill="url(#K)" fill-rule="nonzero"/><path fill="url(#L)" fill-rule="nonzero" d="M152 196h28v148h-28z"/><path fill="url(#M)" fill-rule="nonzero" d="M180 196h30v148h-30z"/><path fill="url(#N)" fill-rule="nonzero" d="M210 196h30v148h-30z"/><path d="M266.906 344H240V196h28v146.906c0 .604-.49 1.094-1.094 1.094Z" fill="url(#O)" fill-rule="nonzero"/><path d="M254 330c-5.912 0-10.968 3.664-13.021 8.846-.351.886-1.585.813-1.918-.08-2.124-5.703-7.618-9.766-14.062-9.766-6.432 0-11.918 4.048-14.05 9.735-.32.855-1.58.855-1.9 0-2.132-5.687-7.618-9.735-14.05-9.735-6.443 0-11.938 4.063-14.062 9.766-.333.893-1.567.966-1.918.08-2.053-5.182-7.109-8.846-13.021-8.846-7.732 0-14 6.268-14 14l52 90h12l51.591-89.292a2.76 2.76 0 0 0 .385-1.528C267.552 335.83 261.457 330 254 330Z" fill="url(#P)" fill-rule="nonzero"/><path fill="#C9C9C9" fill-rule="nonzero" d="M190 190h82v2h-82zM148 184h82v2h-82zM148 190h26v2h-26zM246 184h26v2h-26z"/><path d="M234.001 267c-5.926 0-11.509-3.156-14.57-8.236a3 3 0 0 1 5.138-3.098c2.013 3.34 5.538 5.334 9.432 5.334s7.419-1.994 9.43-5.332a3 3 0 1 1 5.14 3.094c-3.06 5.082-8.643 8.238-14.57 8.238ZM186.001 267c-5.927 0-11.51-3.156-14.57-8.238a3.001 3.001 0 0 1 1.022-4.117 3.002 3.002 0 0 1 4.118 1.023c2.011 3.338 5.536 5.332 9.43 5.332s7.419-1.994 9.432-5.334a2.999 2.999 0 1 1 5.138 3.098c-3.061 5.08-8.644 8.236-14.57 8.236ZM210.001 293a15.026 15.026 0 0 1-14.144-9.994 3 3 0 1 1 5.656-2A9.018 9.018 0 0 0 210 287c3.868 0 7.2-2.355 8.489-6a3 3 0 1 1 5.656 2c-2.147 6.074-7.698 10-14.144 10ZM247.584 247.897l-20.219-6.74a1.992 1.992 0 0 1-1.26-2.52l1.269-3.809a1.993 1.993 0 0 1 2.521-1.26l20.219 6.74a1.992 1.992 0 0 1 1.26 2.52l-1.269 3.809a1.993 1.993 0 0 1-2.521 1.26ZM172.419 247.897l20.219-6.74a1.992 1.992 0 0 0 1.26-2.52l-1.269-3.809a1.993 1.993 0 0 0-2.521-1.26l-20.219 6.74a1.992 1.992 0 0 0-1.26 2.52l1.269 3.809a1.993 1.993 0 0 0 2.521 1.26Z" fill="#3D3630" fill-rule="nonzero" opacity=".1"/><path d="M234 265c-5.926 0-11.509-3.156-14.57-8.236a3 3 0 0 1 5.138-3.098c2.013 3.34 5.538 5.334 9.432 5.334s7.419-1.994 9.43-5.332a3 3 0 1 1 5.14 3.094C245.51 261.844 239.927 265 234 265ZM186 265c-5.927 0-11.51-3.156-14.57-8.238a3.001 3.001 0 0 1 1.022-4.117 3.002 3.002 0 0 1 4.118 1.023c2.011 3.338 5.536 5.332 9.43 5.332s7.419-1.994 9.432-5.334a2.999 2.999 0 1 1 5.138 3.098c-3.061 5.08-8.644 8.236-14.57 8.236ZM210 291a15.026 15.026 0 0 1-14.144-9.994 3 3 0 1 1 5.656-2 9.018 9.018 0 0 0 8.487 5.994c3.868 0 7.2-2.355 8.489-6a3 3 0 1 1 5.656 2c-2.147 6.074-7.698 10-14.144 10ZM247.583 245.897l-20.219-6.74a1.992 1.992 0 0 1-1.26-2.52l1.269-3.809a1.993 1.993 0 0 1 2.521-1.26l20.219 6.74a1.992 1.992 0 0 1 1.26 2.52l-1.269 3.809a1.993 1.993 0 0 1-2.521 1.26ZM172.418 245.897l20.219-6.74a1.992 1.992 0 0 0 1.26-2.52l-1.269-3.809a1.993 1.993 0 0 0-2.521-1.26l-20.219 6.74a1.992 1.992 0 0 0-1.26 2.52l1.269 3.809a1.993 1.993 0 0 0 2.521 1.26Z" fill="#423A34" fill-rule="nonzero"/><path d="M483 262a7 7 0 0 1 7 7v21h-14v-21a7 7 0 0 1 7-7Z" fill="url(#Q)" fill-rule="nonzero"/><path fill="#D33D24" fill-rule="nonzero" d="M148 158h108v2H148z"/><path fill="url(#R)" fill-rule="nonzero" d="M460 306h56v14z"/><path d="M67 121c-4.411 0-8-3.589-8-8s3.589-8 8-8 8 3.589 8 8-3.589 8-8 8Zm0-14c-3.309 0-6 2.691-6 6s2.691 6 6 6 6-2.691 6-6-2.691-6-6-6ZM82 112h60v2H82zM67 145c-4.411 0-8-3.589-8-8s3.589-8 8-8 8 3.589 8 8-3.589 8-8 8Zm0-14c-3.309 0-6 2.691-6 6s2.691 6 6 6 6-2.691 6-6-2.691-6-6-6ZM82 136h60v2H82zM67 97c-4.411 0-8-3.589-8-8s3.589-8 8-8 8 3.589 8 8-3.589 8-8 8Zm0-14c-3.309 0-6 2.691-6 6s2.691 6 6 6 6-2.691 6-6-2.691-6-6-6ZM82 88h60v2H82z" fill="#21AA5B" fill-rule="nonzero"/><path d="M516 306v42c0 33.14-26.86 60-60 60h-8c33.14 0 60-26.86 60-60v-42h8Z" fill="url(#S)" fill-rule="nonzero"/><path d="M210 424c-3.78 0-7.06 2.1-8.78 5.2L204 434v12a6 6 0 1 0 12 0v-12l2.78-4.8c-1.72-3.1-5-5.2-8.78-5.2Z" fill="url(#T)" fill-rule="nonzero"/><path d="M267.717 344.49 216 434h-2s22.5-46 26-56c7.04-15.08 4.26-27.82 1.92-34-.94-2.52-1.82-3.94-1.92-4 .02-.18.04-.34.1-.52.36-.02.7-.22.88-.64 1.94-4.86 6.48-8.38 11.92-8.8.36-.04.74-.04 1.1-.04.48 0 .96.02 1.44.08.4.04.8.1 1.2.18.26.04.54.1.8.18.16.02.32.06.48.12.2.04.4.1.58.18.28.08.54.18.8.3.36.14.7.3 1.04.48.2.08.4.2.6.32.3.16.58.34.84.52.02 0 .04.02.06.02.38.26.72.54 1.06.82.3.24.6.52.88.8.96.92 1.78 2 2.44 3.18.4.7.74 1.46 1 2.24.14.38.24.76.34 1.16.02.02.644 3.169.157 3.91Z" fill="url(#U)" fill-rule="nonzero"/></g></svg>